<svg width="40" height="32" viewBox="0 0 40 32" fill="none" xmlns="http://www.w3.org/2000/svg">
<path opacity="0.9" d="M36.6418 18.4032C38.8806 18.4032 40 19.3652 40 21.2893V29.1139C40 31.038 38.8806 32 36.6418 32H27.9851C25.7463 32 24.6269 31.038 24.6269 29.1139V21.2893C24.6269 16.7998 25.1741 12.8875 26.2687 9.55238C27.4129 6.17455 29.6269 3.22429 32.9104 0.701609C34.005 -0.11078 34.9254 -0.217674 35.6716 0.380929L39.0299 3.07464C39.7761 3.67325 39.602 4.40012 38.5075 5.25527C36.8159 6.53799 35.4229 8.39793 34.3284 10.8351C33.2836 13.2295 32.7612 15.7522 32.7612 18.4032H36.6418ZM12.0149 18.4032C14.2537 18.4032 15.3731 19.3652 15.3731 21.2893V29.1139C15.3731 31.038 14.2537 32 12.0149 32H3.35821C1.1194 32 0 31.038 0 29.1139V21.2893C0 16.7998 0.547264 12.8875 1.64179 9.55238C2.78607 6.17455 5 3.22429 8.28358 0.701609C9.37811 -0.11078 10.2985 -0.217674 11.0448 0.380929L14.403 3.07464C15.1493 3.67325 14.9751 4.40012 13.8806 5.25527C12.1891 6.53799 10.796 8.39793 9.70149 10.8351C8.65672 13.2295 8.13433 15.7522 8.13433 18.4032H12.0149Z" fill="#D4D5DF"/>
</svg>
