<svg width="212" height="312" viewBox="0 0 212 312" fill="none" xmlns="http://www.w3.org/2000/svg">
<path d="M199.453 6.10352e-05H10V311.796H199.453C206.698 311.796 212 304.134 212 295.342V15.433C212 6.64053 206.698 6.10352e-05 199.453 6.10352e-05Z" fill="url(#paint0_linear)"/>
<path d="M9.59027 0.0989075C9.59027 0.0989075 0.040437 0.514221 0.040356 11.2208C0.0401776 34.8269 0 302.75 0 302.75C0 302.75 3.0965 311.795 9.59027 311.795C9.59027 261.189 9.59027 0.0989075 9.59027 0.0989075Z" fill="url(#paint1_linear)"/>
<path d="M44.0451 38.8464H48.338V34.9112H44.0451V38.8464ZM50.1268 46.7158H37.2479V44.9274H48.338V40.6352H42.2564V33.1225H50.1268V38.8464H54.062V28.114H55.8507V40.6352H50.1268V46.7158Z" fill="white"/>
<path d="M175.338 39.2039H179.631V35.2687H175.338V39.2039ZM186.428 47.0732H173.549V40.9926H167.825V28.4715H169.614V39.2039H173.549V33.4799H181.423V40.9926H175.338V45.2849H186.428V47.0732Z" fill="white"/>
<path d="M44.0451 230.244H48.338V226.309H44.0451V230.244ZM55.8507 237.041H54.062V226.309H50.1268V232.033H42.2564V224.52H48.338V220.224H37.2479V218.435H50.1268V224.52H55.8507V237.041Z" fill="white"/>
<path d="M175.338 229.886H179.631V225.951H175.338V229.886ZM169.614 236.683H167.825V224.162H173.549V218.081H186.428V219.866H175.338V224.162H181.423V231.675H173.549V225.951H169.614V236.683Z" fill="white"/>
<path d="M38.3212 235.968H185.713V29.1872H38.3212V235.968ZM187.501 237.757H36.5325V27.3984H187.501V237.757Z" fill="white"/>
<path d="M111.343 160.675L111.319 160.665L111.326 160.636L111.343 160.675Z" fill="white"/>
<path d="M115.078 160.275L115.083 160.267V160.275H115.078Z" fill="white"/>
<path d="M115.089 160.228L115.082 160.269V160.23L115.089 160.228Z" fill="white"/>
<path d="M112.681 102.015C78.7396 132.645 112.681 163.276 112.681 163.276C112.681 163.276 146.622 132.645 112.681 102.015Z" fill="white"/>
<path d="M115.089 160.228L115.082 160.269V160.23L115.089 160.228Z" fill="white"/>
<path d="M166.583 133.793C157.392 172.134 124.05 166.146 115.044 163.77C116.471 162.331 119.172 159.393 121.889 155.308C125.766 149.472 128.27 143.369 129.271 137.371C137.52 131.14 149.508 127.795 166.583 133.793Z" fill="white"/>
<path d="M99.2824 115.202C96.8264 120.214 95.5949 125.423 95.5949 130.795C95.5949 132.075 95.6672 133.367 95.8151 134.667C91.1128 131.393 85.8326 129.358 80.0983 128.632C79.3347 123.112 79.7234 116.675 81.7563 109.18C88.9594 110.359 94.7109 112.478 99.2824 115.202Z" fill="white"/>
<path d="M111.343 160.675L111.319 160.665L111.326 160.636L111.343 160.675Z" fill="white"/>
<path d="M145.191 128.576C139.512 129.216 134.273 131.133 129.591 134.253C129.708 133.093 129.767 131.939 129.767 130.795C129.767 125.409 128.525 120.188 126.062 115.167C130.627 112.46 136.354 110.356 143.526 109.18C145.552 116.651 145.944 123.069 145.191 128.576Z" fill="white"/>
<path d="M111.319 160.665L111.326 160.636L111.319 160.665Z" fill="white"/>
<path d="M110.28 163.733C101.474 166.084 67.8455 172.323 58.6095 133.792C75.8191 127.749 87.8587 131.194 96.1144 137.517C97.1291 143.467 99.623 149.52 103.472 155.307C106.166 159.359 108.845 162.284 110.28 163.733Z" fill="white"/>
<path d="M44.0645 260.203H47.1406V268.983C47.1406 269.798 46.9502 270.524 46.5693 271.163C46.1943 271.802 45.667 272.297 44.9873 272.648C44.3135 273 43.5605 273.176 42.7285 273.176C41.334 273.176 40.25 272.824 39.4766 272.121C38.7031 271.418 38.3164 270.422 38.3164 269.133H41.4102C41.4102 269.719 41.5098 270.144 41.709 270.407C41.9141 270.671 42.2539 270.803 42.7285 270.803C43.1562 270.803 43.4844 270.645 43.7129 270.328C43.9473 270.006 44.0645 269.558 44.0645 268.983V260.203ZM56.167 270.609H51.9395L51.2012 273H47.9053L52.5986 260.203H55.499L60.2275 273H56.9141L56.167 270.609ZM52.6777 268.228H55.4287L54.0488 263.789L52.6777 268.228ZM65.4482 269.52L67.9971 260.203H71.4424L67.1357 273H63.7607L59.4893 260.203H62.9082L65.4482 269.52ZM78.9834 270.609H74.7559L74.0176 273H70.7217L75.415 260.203H78.3154L83.0439 273H79.7305L78.9834 270.609ZM75.4941 268.228H78.2451L76.8652 263.789L75.4941 268.228ZM98.8203 268.667C98.7793 269.558 98.5391 270.346 98.0996 271.031C97.6602 271.711 97.042 272.238 96.2451 272.613C95.4541 272.988 94.5488 273.176 93.5293 273.176C91.8477 273.176 90.5234 272.628 89.5566 271.532C88.5898 270.437 88.1064 268.89 88.1064 266.892V266.259C88.1064 265.005 88.3232 263.909 88.7568 262.972C89.1963 262.028 89.8262 261.302 90.6465 260.792C91.4668 260.276 92.416 260.019 93.4941 260.019C95.0469 260.019 96.2949 260.429 97.2383 261.249C98.1816 262.063 98.7178 263.188 98.8467 264.624H95.7705C95.7471 263.845 95.5508 263.285 95.1816 262.945C94.8125 262.605 94.25 262.436 93.4941 262.436C92.7266 262.436 92.1641 262.723 91.8066 263.297C91.4492 263.871 91.2617 264.788 91.2441 266.048V266.953C91.2441 268.318 91.4141 269.294 91.7539 269.88C92.0996 270.466 92.6914 270.759 93.5293 270.759C94.2383 270.759 94.7803 270.592 95.1553 270.258C95.5303 269.924 95.7295 269.394 95.7529 268.667H98.8203ZM110.976 273H107.908V267.656H103.364V273H100.279V260.203H103.364V265.283H107.908V260.203H110.976V273ZM120.362 270.609H116.135L115.396 273H112.101L116.794 260.203H119.694L124.423 273H121.109L120.362 270.609ZM116.873 268.228H119.624L118.244 263.789L116.873 268.228ZM122.006 259.245V259.359H119.668L118.271 258.164L116.873 259.359H114.588V259.21L117.427 256.775H119.123L122.006 259.245ZM136.051 273H132.983L128.448 265.037V273H125.363V260.203H128.448L132.975 268.166V260.203H136.051V273ZM146.835 268.236L145.569 269.625V273H142.484V260.203H145.569V265.846L146.642 264.22L149.401 260.203H153.216L148.892 265.863L153.216 273H149.56L146.835 268.236ZM157.285 273H154.209V260.203H157.285V273ZM170.117 273H167.05L162.515 265.037V273H159.43V260.203H162.515L167.041 268.166V260.203H170.117V273ZM182.765 273H179.697V267.656H175.153V273H172.068V260.203H175.153V265.283H179.697V260.203H182.765V273Z" fill="white"/>
<defs>
<linearGradient id="paint0_linear" x1="85.9206" y1="-269.024" x2="149.088" y2="470.946" gradientUnits="userSpaceOnUse">
<stop stop-color="#38B2AC"/>
<stop offset="1" stop-color="#2C7A7B"/>
</linearGradient>
<linearGradient id="paint1_linear" x1="3.49946e-06" y1="145.066" x2="9.59085" y2="145.066" gradientUnits="userSpaceOnUse">
<stop stop-color="#3FB8B4"/>
<stop offset="1" stop-color="#2F8786"/>
</linearGradient>
</defs>
</svg>
