<svg width="110" height="200" viewBox="0 0 110 200" fill="none" xmlns="http://www.w3.org/2000/svg">
<g filter="url(#filter0_d)">
<rect x="18.1839" y="13.9327" width="74.9689" height="168.199" fill="url(#paint0_linear)"/>
<rect x="12.4171" y="10.088" width="85.5414" height="3.84456" fill="url(#paint1_linear)"/>
<rect x="12.4171" y="10.088" width="85.5414" height="3.84456" fill="url(#paint2_linear)"/>
<rect x="12.4171" y="182.132" width="85.5414" height="3.84456" fill="url(#paint3_linear)"/>
<rect x="12.4171" y="182.132" width="85.5414" height="3.84456" fill="url(#paint4_linear)"/>
<rect x="18.1839" y="13.9327" width="3.84456" height="168.199" fill="url(#paint5_linear)"/>
<rect x="89.3083" y="13.9327" width="3.84456" height="168.199" fill="url(#paint6_linear)"/>
<path d="M22.0285 13.9327H89.3083V56.5737L55.6684 76.4068L22.0285 56.5737V13.9327Z" fill="url(#paint7_linear)"/>
<path d="M50.9866 96.0308C50.6386 93.8532 48.9334 92.5805 46.7807 92.5805C44.1457 92.5805 42.2018 94.5542 42.2018 97.8106C42.2018 101.067 44.1358 103.041 46.7807 103.041C49.0179 103.041 50.6535 101.639 50.9866 99.6252L49.4355 99.6202C49.172 100.923 48.0783 101.639 46.7906 101.639C45.0456 101.639 43.7281 100.301 43.7281 97.8106C43.7281 95.3397 45.0406 93.9825 46.7956 93.9825C48.0932 93.9825 49.1819 94.7133 49.4355 96.0308H50.9866ZM54.9279 103.071C56.1906 103.071 56.9016 102.429 57.185 101.857H57.2446V102.901H58.6963V97.8305C58.6963 95.6082 56.9463 95.1657 55.7333 95.1657C54.3512 95.1657 53.0784 95.7225 52.5813 97.1146L53.9783 97.4327C54.197 96.8908 54.7539 96.3688 55.7531 96.3688C56.7127 96.3688 57.2049 96.8709 57.2049 97.736V97.7708C57.2049 98.3127 56.648 98.3028 55.2759 98.4619C53.8291 98.6309 52.3476 99.0087 52.3476 100.744C52.3476 102.245 53.4762 103.071 54.9279 103.071ZM55.251 101.877C54.4108 101.877 53.8043 101.5 53.8043 100.764C53.8043 99.9683 54.5103 99.6849 55.3703 99.5705C55.8526 99.5059 56.996 99.3766 57.2098 99.1629V100.147C57.2098 101.052 56.4889 101.877 55.251 101.877ZM54.7887 94.3504L55.8128 93.018L56.832 94.3504H58.1793V94.2758L56.4293 92.1678H55.1914L53.4463 94.2758V94.3504H54.7887ZM65.5136 99.7346C65.5186 101.032 64.5541 101.649 63.7189 101.649C62.7991 101.649 62.1628 100.982 62.1628 99.9434V95.2651H60.6763V100.122C60.6763 102.017 61.7153 103.001 63.1819 103.001C64.3304 103.001 65.1109 102.394 65.4639 101.579H65.5435V102.901H67.0051V95.2651H65.5136V99.7346ZM47.0212 118.367C47.0212 117.149 47.7918 116.453 48.8507 116.453C49.8749 116.453 50.4864 117.105 50.4864 118.223V122.901H51.9729V118.044C51.9729 116.14 50.9288 115.166 49.3578 115.166C48.1696 115.166 47.4537 115.683 47.0957 116.508H47.0013V112.72H45.5347V122.901H47.0212V118.367ZM57.1732 123.056C59.3259 123.056 60.7328 121.48 60.7328 119.118C60.7328 116.742 59.3259 115.166 57.1732 115.166C55.0205 115.166 53.6135 116.742 53.6135 119.118C53.6135 121.48 55.0205 123.056 57.1732 123.056ZM57.1781 121.808C55.7712 121.808 55.1149 120.58 55.1149 119.113C55.1149 117.651 55.7712 116.409 57.1781 116.409C58.5751 116.409 59.2314 117.651 59.2314 119.113C59.2314 120.58 58.5751 121.808 57.1781 121.808ZM57.7797 114.211V113.734C58.3017 113.654 58.8237 113.371 58.8188 112.72C58.8237 111.909 58.0283 111.397 56.5269 111.397L56.4821 112.218C57.0688 112.218 57.5311 112.357 57.5261 112.715C57.5311 113.013 57.2676 113.162 56.5666 113.197L56.6064 114.211H57.7797ZM62.3921 122.901H63.8786V115.265H62.3921V122.901ZM63.1428 114.087C63.6549 114.087 64.0824 113.689 64.0824 113.202C64.0824 112.715 63.6549 112.312 63.1428 112.312C62.6258 112.312 62.2032 112.715 62.2032 113.202C62.2032 113.689 62.6258 114.087 63.1428 114.087ZM34.4536 145.765H35.9401V141.713H36.0296C36.2981 142.2 36.8449 143.051 38.237 143.051C40.0864 143.051 41.4288 141.569 41.4288 139.098C41.4288 136.622 40.0665 135.166 38.2221 135.166C36.8052 135.166 36.2931 136.031 36.0296 136.503H35.9053V135.265H34.4536V145.765ZM35.9103 139.083C35.9103 137.487 36.6063 136.428 37.9039 136.428C39.2512 136.428 39.9273 137.567 39.9273 139.083C39.9273 140.615 39.2313 141.783 37.9039 141.783C36.6262 141.783 35.9103 140.689 35.9103 139.083ZM44.5807 138.367C44.5807 137.149 45.3513 136.453 46.4103 136.453C47.4344 136.453 48.0459 137.105 48.0459 138.223V142.901H49.5324V138.044C49.5324 136.14 48.4884 135.166 46.9174 135.166C45.7292 135.166 45.0133 135.683 44.6553 136.508H44.5609V132.72H43.0942V142.901H44.5807V138.367ZM54.7327 143.056C56.8854 143.056 58.2924 141.48 58.2924 139.118C58.2924 136.742 56.8854 135.166 54.7327 135.166C52.58 135.166 51.1731 136.742 51.1731 139.118C51.1731 141.48 52.58 143.056 54.7327 143.056ZM54.7377 141.808C53.3307 141.808 52.6745 140.58 52.6745 139.113C52.6745 137.651 53.3307 136.409 54.7377 136.409C56.1347 136.409 56.791 137.651 56.791 139.113C56.791 140.58 56.1347 141.808 54.7377 141.808ZM55.3393 134.211V133.734C55.8613 133.654 56.3833 133.371 56.3783 132.72C56.3833 131.909 55.5878 131.397 54.0864 131.397L54.0417 132.218C54.6283 132.218 55.0907 132.357 55.0857 132.715C55.0907 133.013 54.8272 133.162 54.1262 133.197L54.166 134.211H55.3393ZM61.4382 138.367C61.4382 137.149 62.1839 136.453 63.218 136.453C64.2272 136.453 64.8387 137.115 64.8387 138.223V142.901H66.3252V138.044C66.3252 136.155 65.2862 135.166 63.7251 135.166C62.5767 135.166 61.8259 135.698 61.473 136.508H61.3785V135.265H59.9517V142.901H61.4382V138.367ZM71.5206 145.924C73.4644 145.924 74.9659 145.034 74.9659 143.071V135.265H73.5092V136.503H73.3998C73.1363 136.031 72.6093 135.166 71.1875 135.166C69.343 135.166 67.9858 136.622 67.9858 139.053C67.9858 141.49 69.3728 142.787 71.1775 142.787C72.5795 142.787 73.1214 141.997 73.3899 141.509H73.4843V143.011C73.4843 144.209 72.664 144.726 71.5355 144.726C70.2975 144.726 69.8153 144.105 69.5518 143.667L68.2741 144.194C68.6768 145.129 69.696 145.924 71.5206 145.924ZM71.5056 141.554C70.1782 141.554 69.4872 140.535 69.4872 139.034C69.4872 137.567 70.1633 136.428 71.5056 136.428C72.8032 136.428 73.4992 137.487 73.4992 139.034C73.4992 140.61 72.7883 141.554 71.5056 141.554ZM50.2216 155.265H48.6258L46.6968 161.142H46.6172L44.6833 155.265H43.0874L45.8615 162.901H47.4525L50.2216 155.265ZM53.6085 163.071C54.8713 163.071 55.5823 162.429 55.8656 161.857H55.9253V162.901H57.377V157.83C57.377 155.608 55.627 155.166 54.4139 155.166C53.0318 155.166 51.7591 155.723 51.2619 157.115L52.659 157.433C52.8777 156.891 53.4345 156.369 54.4338 156.369C55.3933 156.369 55.8855 156.871 55.8855 157.736V157.771C55.8855 158.313 55.3287 158.303 53.9565 158.462C52.5098 158.631 51.0283 159.009 51.0283 160.744C51.0283 162.245 52.1568 163.071 53.6085 163.071ZM53.9317 161.877C53.0915 161.877 52.4849 161.5 52.4849 160.764C52.4849 159.968 53.1909 159.685 54.051 159.571C54.5332 159.506 55.6767 159.377 55.8905 159.163V160.147C55.8905 161.052 55.1696 161.877 53.9317 161.877ZM51.9182 154.35H53.3898L54.5034 153.366L55.6071 154.35H57.0688L55.0453 152.625H53.9367L51.9182 154.35ZM56.5368 153.247H57.6256L59.0922 151.432H57.5759L56.5368 153.247ZM60.8434 158.367C60.8434 157.149 61.5892 156.453 62.6233 156.453C63.6325 156.453 64.244 157.115 64.244 158.223V162.901H65.7305V158.044C65.7305 156.155 64.6914 155.166 63.1304 155.166C61.9819 155.166 61.2312 155.698 60.8782 156.508H60.7838V155.265H59.3569V162.901H60.8434V158.367Z" fill="white"/>
</g>
<path d="M66.0006 33.1554H63.5978V43.9682H47.9793V46.371C47.9793 47.0318 48.5199 47.5725 49.1807 47.5725H62.3964L67.2021 52.3782V34.3568C67.2021 33.696 66.6614 33.1554 66.0006 33.1554ZM61.1949 40.3639V29.5511C61.1949 28.8903 60.6543 28.3497 59.9935 28.3497H44.375C43.7142 28.3497 43.1736 28.8903 43.1736 29.5511V46.371L47.9793 41.5653H59.9935C60.6543 41.5653 61.1949 41.0247 61.1949 40.3639Z" fill="white" fill-opacity="0.87"/>
<defs>
<filter id="filter0_d" x="0.417053" y="0.0880127" width="109.541" height="199.889" filterUnits="userSpaceOnUse" color-interpolation-filters="sRGB">
<feFlood flood-opacity="0" result="BackgroundImageFix"/>
<feColorMatrix in="SourceAlpha" type="matrix" values="0 0 0 0 0 0 0 0 0 0 0 0 0 0 0 0 0 0 127 0" result="hardAlpha"/>
<feOffset dy="2"/>
<feGaussianBlur stdDeviation="6"/>
<feColorMatrix type="matrix" values="0 0 0 0 0.729412 0 0 0 0 0.729412 0 0 0 0 0.729412 0 0 0 1 0"/>
<feBlend mode="normal" in2="BackgroundImageFix" result="effect1_dropShadow"/>
<feBlend mode="normal" in="SourceGraphic" in2="effect1_dropShadow" result="shape"/>
</filter>
<linearGradient id="paint0_linear" x1="55.6684" y1="13.9327" x2="55.6684" y2="182.132" gradientUnits="userSpaceOnUse">
<stop stop-color="#FCA5A5"/>
<stop offset="1" stop-color="#EF4444"/>
</linearGradient>
<linearGradient id="paint1_linear" x1="12.4171" y1="12.0103" x2="97.9585" y2="12.0103" gradientUnits="userSpaceOnUse">
<stop stop-color="#B91C1C"/>
<stop offset="0.53125" stop-color="#DC2626"/>
<stop offset="1" stop-color="#B91C1C"/>
</linearGradient>
<linearGradient id="paint2_linear" x1="12.4171" y1="12.0103" x2="97.9585" y2="12.0103" gradientUnits="userSpaceOnUse">
<stop stop-color="#B91C1C"/>
<stop offset="0.53125" stop-color="#DC2626"/>
<stop offset="1" stop-color="#B91C1C"/>
</linearGradient>
<linearGradient id="paint3_linear" x1="12.4171" y1="184.054" x2="97.9585" y2="184.054" gradientUnits="userSpaceOnUse">
<stop stop-color="#B91C1C"/>
<stop offset="0.53125" stop-color="#DC2626"/>
<stop offset="1" stop-color="#B91C1C"/>
</linearGradient>
<linearGradient id="paint4_linear" x1="12.4171" y1="184.054" x2="97.9585" y2="184.054" gradientUnits="userSpaceOnUse">
<stop stop-color="#B91C1C"/>
<stop offset="0.53125" stop-color="#DC2626"/>
<stop offset="1" stop-color="#B91C1C"/>
</linearGradient>
<linearGradient id="paint5_linear" x1="20.1062" y1="13.9327" x2="20.1062" y2="182.132" gradientUnits="userSpaceOnUse">
<stop stop-color="#DC2626"/>
<stop offset="0.505208" stop-color="#EF4444"/>
<stop offset="1" stop-color="#DC2626"/>
</linearGradient>
<linearGradient id="paint6_linear" x1="91.2306" y1="13.9327" x2="91.2306" y2="182.132" gradientUnits="userSpaceOnUse">
<stop stop-color="#DC2626"/>
<stop offset="0.505208" stop-color="#EF4444"/>
<stop offset="1" stop-color="#DC2626"/>
</linearGradient>
<linearGradient id="paint7_linear" x1="55.6684" y1="13.9327" x2="55.6684" y2="76.4068" gradientUnits="userSpaceOnUse">
<stop stop-color="#DC2626"/>
<stop offset="0.0001" stop-color="#DC2626"/>
<stop offset="1" stop-color="#F87171"/>
</linearGradient>
</defs>
</svg>
