<svg width="12" height="12" viewBox="0 0 12 12" fill="none" xmlns="http://www.w3.org/2000/svg">
<path fill-rule="evenodd" clip-rule="evenodd" d="M10.6667 1.38125V8.75672C10.6058 8.75043 10.5418 8.74457 10.4751 8.73935C9.94823 8.69817 9.22693 8.69602 8.49189 8.8683C7.76173 9.03943 7.05253 9.37499 6.54041 9.65506C6.28096 9.79696 6.06468 9.92874 5.91247 10.0256C5.83624 10.0741 5.77577 10.114 5.73363 10.1423C5.71255 10.1565 5.69604 10.1678 5.68441 10.1758L5.67066 10.1853L5.66661 10.1881L5.66529 10.189L5.66463 10.1895C5.66455 10.1895 5.66447 10.1896 6 10.6668L5.66463 10.1895C5.40109 10.3748 5.33752 10.7388 5.52283 11.0023C5.7081 11.2658 6.07185 11.3292 6.33537 11.144L6.33695 11.143L6.34571 11.1369C6.35395 11.1312 6.36692 11.1224 6.38429 11.1107C6.41906 11.0873 6.47137 11.0528 6.53871 11.0099C6.6736 10.9241 6.86748 10.8059 7.10021 10.6787C7.57248 10.4204 8.17577 10.1407 8.75811 10.0042C9.33557 9.86884 9.92677 9.86672 10.3842 9.90247C10.6106 9.92016 10.7985 9.94665 10.9281 9.96835C10.9927 9.97918 11.0425 9.98876 11.0749 9.99533C11.0911 9.99862 11.1029 10.0012 11.11 10.0027L11.1169 10.0042C11.2902 10.0448 11.4728 10.004 11.6124 9.89343C11.752 9.78278 11.8333 9.61442 11.8333 9.4363V0.886843C11.8333 0.615967 11.6469 0.38073 11.3831 0.318906L11.25 0.886843C11.3831 0.318906 11.3833 0.318938 11.3831 0.318906L11.3819 0.318619L11.3802 0.318222L11.3753 0.317107L11.3599 0.31367C11.3471 0.310872 11.3295 0.307095 11.3072 0.30257C11.2627 0.293523 11.1996 0.281462 11.1208 0.268252C10.9632 0.241875 10.741 0.210674 10.4751 0.189899C9.94823 0.148722 9.22692 0.146578 8.49188 0.31887C7.76173 0.490014 7.05253 0.825563 6.54042 1.10563C6.28097 1.24752 6.06469 1.37929 5.91248 1.47613C5.83626 1.52462 5.77578 1.56455 5.73364 1.59286C5.71256 1.60702 5.69605 1.61829 5.68442 1.62629L5.67067 1.6358L5.66662 1.63863L5.66464 1.64001C5.66456 1.64007 5.66448 1.64012 5.99176 2.10559L5.66464 1.64001C5.4011 1.82531 5.33751 2.18929 5.52282 2.45283C5.70805 2.71627 6.0717 2.77975 6.33522 2.59471L6.33694 2.59351L6.3457 2.58745C6.35394 2.58178 6.3669 2.57292 6.38428 2.56125C6.41905 2.53789 6.47136 2.50332 6.53869 2.46049C6.67359 2.37467 6.86747 2.25651 7.10021 2.12922C7.57247 1.87095 8.17577 1.59125 8.75812 1.45475C9.33558 1.3194 9.92677 1.31727 10.3842 1.35302C10.4869 1.36104 10.5817 1.37088 10.6667 1.38125Z" fill="#6E7191"/>
<path fill-rule="evenodd" clip-rule="evenodd" d="M1.33334 1.38125V8.75672C1.39421 8.75043 1.45817 8.74457 1.52487 8.73935C2.05177 8.69817 2.77308 8.69602 3.50812 8.8683C4.23827 9.03943 4.94748 9.37499 5.45959 9.65506C5.71904 9.79696 5.93532 9.92874 6.08754 10.0256C6.16376 10.0741 6.22424 10.114 6.26638 10.1423C6.28745 10.1565 6.30397 10.1678 6.3156 10.1758L6.32934 10.1853L6.3334 10.1881L6.33471 10.189L6.33538 10.1895C6.33546 10.1895 6.33554 10.1896 6 10.6668L6.33538 10.1895C6.59891 10.3748 6.66249 10.7388 6.47718 11.0023C6.29191 11.2658 5.92816 11.3292 5.66463 11.144L5.66305 11.143L5.65429 11.1369C5.64605 11.1312 5.63309 11.1224 5.61571 11.1107C5.58095 11.0873 5.52863 11.0528 5.4613 11.0099C5.32641 10.9241 5.13253 10.8059 4.89979 10.6787C4.42753 10.4204 3.82424 10.1407 3.24189 10.0042C2.66444 9.86884 2.07324 9.86672 1.61577 9.90247C1.38941 9.92016 1.20151 9.94665 1.07193 9.96835C1.00726 9.97918 0.957483 9.98876 0.925106 9.99533C0.908927 9.99862 0.897126 10.0012 0.890019 10.0027L0.88314 10.0042C0.709788 10.0448 0.527165 10.004 0.387641 9.89343C0.248054 9.78278 0.166672 9.61442 0.166672 9.4363V0.886843C0.166672 0.615967 0.353141 0.38073 0.616868 0.318906L0.750005 0.886843C0.616868 0.318906 0.616734 0.318938 0.616868 0.318906L0.618098 0.318619L0.619814 0.318222L0.624689 0.317107L0.64011 0.31367C0.65287 0.310872 0.67055 0.307095 0.692823 0.30257C0.73735 0.293523 0.800365 0.281462 0.879254 0.268252C1.03678 0.241875 1.25904 0.210674 1.52487 0.189899C2.05178 0.148722 2.77308 0.146578 3.50813 0.31887C4.23828 0.490014 4.94747 0.825563 5.45959 1.10563C5.71904 1.24752 5.93531 1.37929 6.08753 1.47613C6.16375 1.52462 6.22423 1.56455 6.26636 1.59286C6.28744 1.60702 6.30396 1.61829 6.31558 1.62629L6.32933 1.6358L6.33339 1.63863L6.33536 1.64001C6.33545 1.64007 6.33552 1.64012 6.00824 2.10559L6.33536 1.64001C6.5989 1.82531 6.66249 2.18929 6.47719 2.45283C6.29196 2.71627 5.92831 2.77975 5.66479 2.59471L5.66307 2.59351L5.6543 2.58745C5.64607 2.58178 5.6331 2.57292 5.61573 2.56125C5.58096 2.53789 5.52864 2.50332 5.46131 2.46049C5.32642 2.37467 5.13254 2.25651 4.8998 2.12922C4.42754 1.87095 3.82423 1.59125 3.24188 1.45475C2.66443 1.3194 2.07323 1.31727 1.61577 1.35302C1.51309 1.36104 1.41833 1.37088 1.33334 1.38125Z" fill="#6E7191"/>
<path fill-rule="evenodd" clip-rule="evenodd" d="M2.51742 3.52524C2.59555 3.2127 2.91227 3.02267 3.22481 3.10081C3.92012 3.27463 4.43814 3.62134 4.77996 3.92043C4.9514 4.07043 5.08127 4.21082 5.17016 4.31637C5.21471 4.36927 5.24929 4.41382 5.27396 4.44697C5.2863 4.46355 5.2962 4.47733 5.30364 4.48792L5.31299 4.50138L5.3163 4.50624L5.31761 4.50819L5.31818 4.50904C5.31831 4.50923 5.31869 4.50981 4.84276 4.82711L5.3187 4.50981C5.4974 4.77787 5.42497 5.14005 5.15691 5.31875C4.88885 5.49746 4.52668 5.42502 4.34797 5.15696L4.8332 4.83348C4.34797 5.15696 4.34785 5.15679 4.34797 5.15696L4.34843 5.15766L4.34884 5.15827L4.34935 5.15907C4.34768 5.15669 4.34391 5.15139 4.33802 5.14348C4.32623 5.12764 4.30613 5.10154 4.27776 5.06786C4.22081 5.00023 4.13194 4.90364 4.01171 4.79843C3.77019 4.58711 3.41321 4.35048 2.94185 4.23264C2.62931 4.1545 2.43928 3.83779 2.51742 3.52524Z" fill="#6E7191"/>
<path fill-rule="evenodd" clip-rule="evenodd" d="M9.48259 3.52524C9.40446 3.2127 9.08775 3.02267 8.7752 3.10081C8.07989 3.27463 7.56187 3.62134 7.22005 3.92043C7.04862 4.07043 6.91874 4.21082 6.82985 4.31637C6.7853 4.36927 6.75072 4.41382 6.72605 4.44697C6.71371 4.46355 6.70382 4.47733 6.69637 4.48792L6.68702 4.50138L6.68371 4.50624L6.6824 4.50819L6.68183 4.50904C6.6817 4.50923 6.68132 4.50981 7.15726 4.82711L6.68132 4.50981C6.50261 4.77787 6.57504 5.14005 6.8431 5.31875C7.11116 5.49746 7.47334 5.42502 7.65204 5.15696L7.16681 4.83348C7.65204 5.15696 7.65216 5.15679 7.65204 5.15696L7.65158 5.15766L7.65117 5.15827L7.65066 5.15907C7.65233 5.15669 7.65611 5.15139 7.66199 5.14348C7.67378 5.12764 7.69389 5.10154 7.72225 5.06786C7.7792 5.00023 7.86807 4.90364 7.98831 4.79843C8.22982 4.58711 8.5868 4.35048 9.05816 4.23264C9.37071 4.1545 9.56073 3.83779 9.48259 3.52524Z" fill="#6E7191"/>
<path fill-rule="evenodd" clip-rule="evenodd" d="M2.51742 6.44175C2.59555 6.1292 2.91227 5.93917 3.22481 6.01731C3.92012 6.19114 4.43814 6.53784 4.77996 6.83693C4.9514 6.98694 5.08127 7.12732 5.17016 7.23287C5.21471 7.28578 5.24929 7.33032 5.27396 7.36347C5.2863 7.38006 5.2962 7.39383 5.30364 7.40442L5.31299 7.41788L5.3163 7.42275L5.31761 7.4247L5.31818 7.42555C5.31831 7.42574 5.31869 7.42632 4.84276 7.74361L5.3187 7.42632C5.4974 7.69438 5.42497 8.05655 5.15691 8.23526C4.88885 8.41396 4.52668 8.34153 4.34797 8.07347L4.8332 7.74998C4.34797 8.07347 4.34785 8.07329 4.34797 8.07347L4.34843 8.07416L4.34884 8.07477L4.34935 8.07557C4.34768 8.0732 4.34391 8.06789 4.33802 8.05998C4.32623 8.04414 4.30613 8.01805 4.27776 7.98436C4.22081 7.91674 4.13194 7.82014 4.01171 7.71494C3.77019 7.50362 3.41321 7.26698 2.94185 7.14914C2.62931 7.07101 2.43928 6.75429 2.51742 6.44175Z" fill="#6E7191"/>
<path fill-rule="evenodd" clip-rule="evenodd" d="M8.56341 6.90584C8.41933 6.61768 8.06894 6.50089 7.78079 6.64496C7.45441 6.80815 7.20601 6.97314 7.03541 7.10109C6.95007 7.16509 6.88402 7.21996 6.83722 7.26091C6.81381 7.28139 6.7952 7.29842 6.78137 7.31138C6.77445 7.31787 6.76873 7.32334 6.7642 7.32773L6.7583 7.33349L6.75602 7.33574L6.75504 7.33671L6.7546 7.33715C6.7545 7.33725 6.75418 7.33757 7.16666 7.75005L6.75418 7.33757C6.52638 7.56537 6.52638 7.93472 6.75418 8.16253C6.98101 8.38935 7.34816 8.39033 7.5762 8.16545L7.5793 8.16251C7.5837 8.15838 7.59242 8.15034 7.60548 8.13892C7.6316 8.11607 7.67492 8.07979 7.73541 8.03442C7.85648 7.94362 8.04558 7.81694 8.30254 7.68846C8.59069 7.54439 8.70749 7.19399 8.56341 6.90584Z" fill="#6E7191"/>
</svg>
