<svg width="12" height="10" viewBox="0 0 12 10" fill="none" xmlns="http://www.w3.org/2000/svg">
<path fill-rule="evenodd" clip-rule="evenodd" d="M9.53406 1.13143C9.64255 0.828085 9.97641 0.670123 10.2798 0.778616C10.811 0.968625 11.2711 1.29641 11.557 1.79158C12.1297 2.78352 11.7786 4.00224 11.0901 5.04501C10.3802 6.12033 9.20642 7.19012 7.74998 8.031C6.29354 8.87187 4.78021 9.35347 3.49396 9.43068C2.24665 9.50554 1.01569 9.20019 0.442986 8.20824C0.167831 7.73166 0.107438 7.19217 0.193814 6.65697C0.245144 6.33892 0.544587 6.1227 0.862638 6.17403C1.18069 6.22536 1.39691 6.52481 1.34558 6.84286C1.29248 7.17187 1.33949 7.42769 1.45335 7.62491C1.68606 8.02799 2.31516 8.33266 3.42406 8.2661C4.49402 8.20188 5.83305 7.79059 7.16665 7.02064C8.50025 6.25068 9.52596 5.29669 10.1166 4.40219C10.7286 3.47513 10.7793 2.77799 10.5466 2.37491C10.4286 2.17049 10.2195 1.99611 9.88688 1.87714C9.58353 1.76865 9.42557 1.43478 9.53406 1.13143Z" fill="#6E7191"/>
<path fill-rule="evenodd" clip-rule="evenodd" d="M5.99999 1.49992C4.06699 1.49992 2.49999 3.06692 2.49999 4.99992C2.49999 6.93291 4.06699 8.49992 5.99999 8.49992C7.93298 8.49992 9.49999 6.93291 9.49999 4.99992C9.49999 3.06692 7.93298 1.49992 5.99999 1.49992ZM1.33332 4.99992C1.33332 2.42259 3.42266 0.333252 5.99999 0.333252C8.57732 0.333252 10.6667 2.42259 10.6667 4.99992C10.6667 7.57725 8.57732 9.66658 5.99999 9.66658C3.42266 9.66658 1.33332 7.57725 1.33332 4.99992Z" fill="#6E7191"/>
<path fill-rule="evenodd" clip-rule="evenodd" d="M4.83332 3.25008C4.83332 3.57225 4.57216 3.83341 4.24999 3.83341C3.92782 3.83341 3.66666 3.57225 3.66666 3.25008C3.66666 2.92791 3.92782 2.66675 4.24999 2.66675C4.57216 2.66675 4.83332 2.92791 4.83332 3.25008Z" fill="#6E7191"/>
</svg>
