<svg width="10" height="12" viewBox="0 0 10 12" fill="none" xmlns="http://www.w3.org/2000/svg">
<path fill-rule="evenodd" clip-rule="evenodd" d="M8.5 0.166748C9.14433 0.166748 9.66667 0.689083 9.66667 1.33341L9.66667 10.6667C9.66667 11.3111 9.14433 11.8334 8.5 11.8334H1.5C0.855669 11.8334 0.333334 11.3111 0.333334 10.6667L0.333335 1.33341C0.333335 0.689083 0.855668 0.166748 1.5 0.166748H8.5ZM8.5 10.6667V1.33341H1.5L1.5 10.6667H8.5Z" fill="#6E7191"/>
<path fill-rule="evenodd" clip-rule="evenodd" d="M2.66667 5.41659C2.66667 5.09442 2.92783 4.83325 3.25 4.83325H6.75C7.07217 4.83325 7.33333 5.09442 7.33333 5.41659C7.33333 5.73875 7.07217 5.99992 6.75 5.99992H3.25C2.92783 5.99992 2.66667 5.73875 2.66667 5.41659Z" fill="#6E7191"/>
<path fill-rule="evenodd" clip-rule="evenodd" d="M2.66667 7.16659C2.66667 6.84442 2.92783 6.58325 3.25 6.58325H6.75C7.07217 6.58325 7.33333 6.84442 7.33333 7.16659C7.33333 7.48875 7.07217 7.74992 6.75 7.74992H3.25C2.92783 7.74992 2.66667 7.48875 2.66667 7.16659Z" fill="#6E7191"/>
<path fill-rule="evenodd" clip-rule="evenodd" d="M2.66667 8.91659C2.66667 8.59442 2.92783 8.33325 3.25 8.33325H6.75C7.07217 8.33325 7.33333 8.59442 7.33333 8.91659C7.33333 9.23875 7.07217 9.49992 6.75 9.49992H3.25C2.92783 9.49992 2.66667 9.23875 2.66667 8.91659Z" fill="#6E7191"/>
<path fill-rule="evenodd" clip-rule="evenodd" d="M7.33333 3.08333C7.33333 3.4055 7.07217 3.66667 6.75 3.66667C6.42783 3.66667 6.16667 3.4055 6.16667 3.08333C6.16667 2.76117 6.42783 2.5 6.75 2.5C7.07217 2.5 7.33333 2.76117 7.33333 3.08333Z" fill="#6E7191"/>
</svg>
