<svg width="144" height="23" viewBox="0 0 144 23" fill="none" xmlns="http://www.w3.org/2000/svg">
<path d="M12.9023 1.296L9.38225 10.8L13.5743 22H8.99825L5.92625 13.808H4.48625V22H0.00625002V1.296H4.48625V9.968H5.57425L8.80625 1.296H12.9023ZM22.492 1.296H26.972V18.096C26.972 20.912 25.6493 22.32 23.004 22.32H19.036C16.3907 22.32 15.068 20.912 15.068 18.096V1.296H19.548V18.48C19.548 18.6507 19.6013 18.8 19.708 18.928C19.836 19.056 19.9853 19.12 20.156 19.12H21.884C22.0547 19.12 22.1933 19.056 22.3 18.928C22.428 18.8 22.492 18.6507 22.492 18.48V1.296ZM41.9095 22H37.4295V4.816C37.4295 4.64533 37.3655 4.496 37.2375 4.368C37.1308 4.24 36.9922 4.176 36.8215 4.176H35.0935C34.9228 4.176 34.7735 4.24 34.6455 4.368C34.5388 4.496 34.4855 4.64533 34.4855 4.816V22H30.0055V5.2C30.0055 2.384 31.3282 0.976 33.9735 0.976H37.9415C40.5868 0.976 41.9095 2.384 41.9095 5.2V22ZM50.9605 13.776V10.48H56.8805V18.096C56.8805 20.912 55.5578 22.32 52.9125 22.32H48.8805C46.2352 22.32 44.9125 20.912 44.9125 18.096V5.2C44.9125 2.384 46.2352 0.976 48.8805 0.976H52.9125C55.5578 0.976 56.8805 2.384 56.8805 5.2V7.152H52.6245V4.656C52.6245 4.48533 52.5605 4.336 52.4325 4.208C52.3258 4.08 52.1872 4.016 52.0165 4.016H50.0005C49.8298 4.016 49.6805 4.08 49.5525 4.208C49.4458 4.336 49.3925 4.48533 49.3925 4.656V18.608C49.3925 18.7787 49.4458 18.928 49.5525 19.056C49.6805 19.184 49.8298 19.248 50.0005 19.248H52.0165C52.1872 19.248 52.3258 19.184 52.4325 19.056C52.5605 18.928 52.6245 18.7787 52.6245 18.608V13.776H50.9605ZM63.83 13.872V22H59.35V1.296H68.694V5.168H63.83V10.128H68.374V13.872H63.83ZM78.7108 1.296H83.1908V18.096C83.1908 20.912 81.8681 22.32 79.2228 22.32H75.2548C72.6094 22.32 71.2868 20.912 71.2868 18.096V1.296H75.7668V18.48C75.7668 18.6507 75.8201 18.8 75.9268 18.928C76.0548 19.056 76.2041 19.12 76.3748 19.12H78.1028C78.2734 19.12 78.4121 19.056 78.5188 18.928C78.6468 18.8 78.7108 18.6507 78.7108 18.48V1.296ZM91.541 5.104V1.296H102.741V5.104H99.381V22H94.901V5.104H91.541ZM109.268 18.288H114.228V22H104.788V1.296H114.228V4.944H109.268V9.808H113.908V13.328H109.268V18.288ZM124.531 18.608V15.408H128.787V18.096C128.787 20.912 127.464 22.32 124.819 22.32H120.787C118.141 22.32 116.819 20.912 116.819 18.096V5.2C116.819 2.384 118.141 0.976 120.787 0.976H124.819C127.464 0.976 128.787 2.384 128.787 5.2V7.152H124.531V4.656C124.531 4.48533 124.467 4.336 124.339 4.208C124.232 4.08 124.093 4.016 123.923 4.016H121.907C121.736 4.016 121.587 4.08 121.459 4.208C121.352 4.336 121.299 4.48533 121.299 4.656V18.608C121.299 18.7787 121.352 18.928 121.459 19.056C121.587 19.184 121.736 19.248 121.907 19.248H123.923C124.093 19.248 124.232 19.184 124.339 19.056C124.467 18.928 124.531 18.7787 124.531 18.608ZM135.955 13.872V22H131.475V1.296H135.955V9.968H139.507V1.296H143.987V22H139.507V13.872H135.955Z" fill="#2C7A7B"/>
</svg>
