<svg width="288" height="280" viewBox="0 0 288 280" fill="none" xmlns="http://www.w3.org/2000/svg">
<path d="M104.14 85.1909C104.14 85.1909 98.9104 118.107 101.267 124.133C103.623 130.155 109.424 121.826 109.424 121.826L104.14 85.1909Z" fill="url(#paint0_linear)"/>
<path d="M148.599 147.434L116.823 131.482L116.976 125.313L153.153 134.808L160.743 130.844L166.514 131.755L167.221 127.459L176.702 122.501L176.439 133.194L167.48 137.777L165.312 138.882L148.599 147.434ZM101.267 109.222C101.726 93.7147 104.341 82.2447 107.508 73.9104C107.677 73.4664 107.847 73.0317 108.018 72.6062C110.085 67.4715 112.344 63.606 114.372 60.7731C116.059 58.2849 118.002 56.0468 120.165 54.4443C120.466 54.2103 120.632 54.1011 120.632 54.1011C120.661 53.9813 120.688 53.9244 120.712 53.9244C120.73 53.9244 120.746 53.9559 120.762 54.016C122.763 52.653 124.896 51.5028 127.131 50.5912C128.383 50.0806 129.667 49.6449 130.977 49.2883C131.021 49.2763 131.071 49.2671 131.127 49.2601L138.831 47.8102L139.084 38.1907L152.753 37.1787L153.513 47.3042L154.808 47.5813C152.386 50.7457 125.106 86.1852 116.984 87.2582C117.055 91.0784 117.055 94.7322 117.008 98.1454C114.253 103.349 110.438 106.558 101.267 109.222Z" fill="url(#paint1_linear)"/>
<path d="M188.232 78.8595C188.232 78.8595 197.536 117.992 170.919 131.756C164.517 130.905 166.98 120.272 166.98 120.272C166.98 120.272 177.777 114.953 176.353 86.0329C180.058 82.985 188.232 78.8595 188.232 78.8595Z" fill="url(#paint2_linear)"/>
<path d="M132.913 24.8915C132.634 24.5571 131.072 20.9866 129.064 21.7118C127.055 22.437 128.282 26.8997 129.566 28.7409C130.849 30.5821 131.965 35.1008 134.14 33.0366C136.316 30.9725 132.913 24.8915 132.913 24.8915Z" fill="url(#paint3_linear)"/>
<path d="M158.072 24.8915C158.351 24.5571 159.913 20.9866 161.921 21.7118C163.93 22.437 162.702 26.8997 161.419 28.7409C160.136 30.5821 159.02 35.1008 156.845 33.0366C154.669 30.9725 158.072 24.8915 158.072 24.8915Z" fill="url(#paint4_linear)"/>
<path d="M148.366 0.903091C144.131 0.905403 139.378 0.904949 135.875 3.64989C132.695 6.14091 131.555 10.1767 131.353 14.0552C131.142 18.1206 131.749 22.2456 132.243 26.2717C132.742 30.3352 133.189 34.7368 135.225 38.3716C137.252 41.9874 141.849 44.9067 146.023 45.3096C160.597 46.717 160.128 24.0762 160.776 14.7864C161.237 8.17036 155.224 0.899853 148.366 0.903091Z" fill="url(#paint5_linear)"/>
<path d="M153.153 134.808L116.976 125.313L115.537 124.933C115.537 124.933 116.788 114.06 117.008 98.1455C117.055 94.7322 117.055 91.0785 116.984 87.2582C125.106 86.1852 152.386 50.7457 154.808 47.5813C154.921 47.4333 154.979 47.356 154.979 47.356C155.361 47.3926 155.743 47.4328 156.118 47.4767C156.072 47.5901 156.032 47.7098 155.996 47.8352L133.123 126.478L160.743 130.844L153.153 134.808ZM167.221 127.459L178.393 59.5725C178.52 58.8011 178.527 58.0282 178.423 57.2771C189.956 68.3651 191.806 86.2546 191.321 99.3572C190.968 108.885 189.38 115.878 189.38 115.878L176.702 122.501L167.221 127.459Z" fill="url(#paint6_linear)"/>
<path d="M166.514 131.756L160.743 130.844L133.123 126.478L155.996 47.8354C156.032 47.7101 156.072 47.5903 156.118 47.477C156.725 45.9443 158.173 45.4716 159.836 45.4716C161.012 45.4716 162.296 45.7084 163.465 45.9734C163.794 46.0479 164.114 46.1247 164.419 46.1991C169.169 47.3563 169.249 49.8168 173.178 51.0198C173.927 51.2492 174.599 51.5974 175.193 52.0104C176.986 53.2546 178.134 55.1804 178.423 57.2774C178.527 58.0285 178.52 58.8013 178.393 59.5728L167.221 127.459L166.514 131.756ZM171.488 77.7957C171.375 77.7957 171.277 77.879 171.257 77.9946L164.644 115.513C164.62 115.642 164.708 115.767 164.838 115.79L164.88 115.795C164.995 115.795 165.096 115.711 165.117 115.596L171.731 78.0779C171.754 77.9484 171.667 77.8235 171.536 77.8004C171.52 77.7957 171.504 77.7957 171.488 77.7957ZM168.969 54.587C168.854 54.587 168.752 54.6698 168.732 54.7868L158.39 115.513C158.368 115.647 158.456 115.767 158.587 115.79L158.627 115.795C158.743 115.795 158.844 115.711 158.864 115.596L169.206 54.8677C169.228 54.7369 169.14 54.6129 169.009 54.5902C168.996 54.5879 168.982 54.587 168.969 54.587ZM160.801 51.0998C160.696 51.0998 160.599 51.1687 160.569 51.2751L143.725 111.04C143.689 111.17 143.764 111.299 143.891 111.336L143.957 111.345C144.062 111.345 144.158 111.276 144.188 111.17L161.032 51.4055C161.068 51.2774 160.994 51.1446 160.866 51.1086C160.844 51.103 160.823 51.0998 160.801 51.0998ZM164.399 50.0069C164.298 50.0069 164.204 50.0712 164.171 50.1715L157.678 69.6627C157.635 69.7885 157.703 69.924 157.83 69.9656L157.906 69.9795C158.006 69.9795 158.1 69.9147 158.134 69.8153L164.628 50.3237C164.669 50.1974 164.601 50.0615 164.475 50.0194C164.45 50.0106 164.424 50.0069 164.399 50.0069Z" fill="url(#paint7_linear)"/>
<path d="M209.939 131.755C207.785 125.747 175.89 118.347 175.89 118.347L146.001 121.566L116.101 118.347C116.101 118.347 84.2112 125.747 82.0564 131.755C79.9012 137.758 143.3 144.303 143.3 144.303C143.3 144.303 212.095 137.758 209.939 131.755Z" fill="url(#paint8_linear)"/>
<path d="M143.957 111.345L143.891 111.336C143.764 111.299 143.689 111.169 143.725 111.04L160.569 51.2748C160.599 51.1684 160.696 51.0995 160.801 51.0995C160.823 51.0995 160.844 51.1027 160.866 51.1083C160.994 51.1444 161.068 51.2771 161.032 51.4052L144.188 111.169C144.158 111.276 144.062 111.345 143.957 111.345Z" fill="url(#paint9_linear)"/>
<path d="M158.627 115.794L158.587 115.79C158.456 115.767 158.367 115.646 158.39 115.512L168.732 54.7865C168.752 54.6695 168.854 54.5867 168.968 54.5867C168.982 54.5867 168.996 54.5876 169.009 54.5899C169.14 54.6126 169.228 54.7366 169.206 54.8674L158.864 115.596C158.844 115.711 158.743 115.794 158.627 115.794Z" fill="url(#paint10_linear)"/>
<path d="M164.881 115.794L164.838 115.79C164.708 115.767 164.62 115.642 164.644 115.512L171.257 77.9943C171.277 77.8787 171.375 77.7954 171.488 77.7954C171.504 77.7954 171.52 77.7954 171.536 77.8001C171.667 77.8232 171.754 77.9481 171.731 78.0776L165.117 115.596C165.097 115.711 164.995 115.794 164.881 115.794Z" fill="url(#paint11_linear)"/>
<path d="M157.906 69.9792L157.83 69.9654C157.704 69.9238 157.636 69.7882 157.678 69.6624L164.171 50.1713C164.204 50.0709 164.298 50.0067 164.399 50.0067C164.425 50.0067 164.45 50.0104 164.475 50.0191C164.601 50.0612 164.669 50.1972 164.628 50.3235L158.134 69.8151C158.1 69.9145 158.006 69.9792 157.906 69.9792Z" fill="url(#paint12_linear)"/>
<path d="M191.39 122.575C190.542 122.311 178.863 118.223 176.805 118.347C174.748 118.472 114.128 115.448 113.149 119.069L169.765 132.431C176.128 133.934 182.841 131.982 187.397 127.292C189.792 124.827 191.743 122.681 191.39 122.575Z" fill="url(#paint13_linear)"/>
<path d="M145.998 136.958C145.457 137.139 137.809 135.784 136.968 133.846C136.126 131.908 135.044 131.186 130.895 131.848C126.746 132.509 118.509 127.69 117.006 130.793C115.503 133.892 124.582 137.8 128.31 138.762C132.037 139.724 149.717 147.771 149.717 147.771L145.998 136.958Z" fill="url(#paint14_linear)"/>
<path d="M208.221 129.369C208.221 129.369 226.21 144.654 212.982 152.11C199.754 159.565 150.462 150.949 150.462 150.949L143.115 137.44C143.115 137.44 202.498 126.825 208.221 129.369Z" fill="url(#paint15_linear)"/>
<path d="M140.529 136.958C141.07 137.139 144.798 136.745 145.64 134.808C146.482 132.87 147.564 132.148 151.712 132.81C155.861 133.471 164.099 128.652 165.602 131.755C167.105 134.854 158.026 138.762 154.298 139.724C150.57 140.686 137.042 146.518 137.042 146.518L140.529 136.958Z" fill="url(#paint16_linear)"/>
<path d="M84.1428 129.369C84.1428 129.369 66.2135 144.654 79.4414 152.11C92.6689 159.565 137.022 150.907 137.022 150.907L142.473 135.959C142.473 135.959 89.8662 126.825 84.1428 129.369Z" fill="url(#paint17_linear)"/>
<path d="M187.728 96.1937C187.728 96.1937 195.304 117.718 191.937 120.965C188.57 124.212 182.317 122.649 182.317 122.649C182.317 122.649 182.818 91.5039 187.558 96.7949L187.728 96.1937Z" fill="url(#paint18_linear)"/>
<path d="M181.789 76.4452C181.344 76.1076 180.653 76.0012 180.116 76.1585L144.832 86.2733L109.929 76.1631C109.392 76.0058 108.226 76.1122 107.778 76.4498C107.331 76.7874 106.481 77.3147 106.481 77.8743V79.692L144.602 92.5957L182.723 81.7825V77.8651C182.723 77.3055 182.236 76.7828 181.789 76.4452Z" fill="white"/>
<path d="M144.136 86.2732L107.771 77.6291C107.235 77.5042 106.671 77.6291 106.242 77.976C105.815 78.3228 105.57 78.8455 105.582 79.3958L106.411 119.883C106.428 120.711 107.018 121.423 107.832 121.59L145.067 129.221L144.136 86.2732Z" fill="url(#paint19_linear)"/>
<path d="M146.973 86.2732L183.339 77.6291C183.874 77.5042 184.439 77.6291 184.867 77.976C185.296 78.3228 185.54 78.8455 185.528 79.3958L184.698 119.883C184.681 120.711 184.092 121.423 183.277 121.59L146.043 129.221L146.973 86.2732Z" fill="url(#paint20_linear)"/>
<path d="M148.321 86.4116C148.321 85.4311 147.525 84.6356 146.542 84.6356H141.731C140.749 84.6356 139.953 85.4311 139.953 86.4116V127.486C139.953 128.471 140.749 129.267 141.731 129.267H146.542C147.525 129.267 148.321 128.471 148.321 127.486V86.4116Z" fill="url(#paint21_linear)"/>
<path d="M113.368 92.9699C112.558 90.847 108.241 93.1965 106.773 94.0753C106.665 94.14 106.531 94.1446 106.418 94.0891C106.305 94.0336 106.227 93.9273 106.211 93.8024L105.812 90.6481L104.436 93.6544C102.233 96.9057 104.008 104.898 104.008 104.898C104.541 108.39 108.657 107.284 111.716 106.248C114.775 105.208 114.346 95.5414 113.368 92.9699Z" fill="url(#paint22_linear)"/>
<path d="M177.744 92.9699C178.554 90.847 182.87 93.1965 184.338 94.0753C184.446 94.14 184.58 94.1446 184.693 94.0891C184.807 94.0336 184.884 93.9273 184.9 93.8024L185.3 90.6481L186.676 93.6544C188.878 96.9057 187.104 104.898 187.104 104.898C186.57 108.39 182.455 107.284 179.396 106.248C176.337 105.208 176.765 95.5414 177.744 92.9699Z" fill="url(#paint23_linear)"/>
<path d="M250.877 201.177H35.9578C37.6801 201.177 38.7573 195.368 39.1902 188.102C39.9131 175.956 38.8359 159.741 35.9578 159.741H109.47H183.039H185.979H249.069H250.877V165.148V201.177ZM43.4008 191.903C42.8818 191.903 42.461 192.324 42.461 192.842C42.461 193.365 42.8818 193.781 43.4008 193.781H244.916C245.435 193.781 245.856 193.365 245.856 192.842C245.856 192.324 245.435 191.903 244.916 191.903H43.4008ZM43.4008 185.752C42.8818 185.752 42.461 186.173 42.461 186.696C42.461 187.214 42.8818 187.635 43.4008 187.635H244.916C245.435 187.635 245.856 187.214 245.856 186.696C245.856 186.173 245.435 185.752 244.916 185.752H43.4008ZM43.4008 179.601C42.8818 179.601 42.461 180.022 42.461 180.544C42.461 181.062 42.8818 181.483 43.4008 181.483H244.916C245.435 181.483 245.856 181.062 245.856 180.544C245.856 180.022 245.435 179.601 244.916 179.601H43.4008ZM43.4008 173.45C42.8818 173.45 42.461 173.871 42.461 174.393C42.461 174.911 42.8818 175.332 43.4008 175.332H244.916C245.435 175.332 245.856 174.911 245.856 174.393C245.856 173.871 245.435 173.45 244.916 173.45H43.4008ZM43.4008 167.303C42.8818 167.303 42.461 167.724 42.461 168.242C42.461 168.76 42.8818 169.181 43.4008 169.181H244.916C245.435 169.181 245.856 168.76 245.856 168.242C245.856 167.724 245.435 167.303 244.916 167.303H43.4008Z" fill="url(#paint24_linear)"/>
<path d="M250.877 190.807V171.845C250.877 165.157 246.63 159.741 241.39 159.741H36.8641C32.7436 159.741 29.4039 156.522 29.4039 152.554C29.4039 151.347 30.4187 150.371 31.6706 150.371H255.202C260.328 150.371 268.467 158.132 268.467 167.71V194.198C268.467 203.225 260.566 210.547 255.732 210.547H32.8463C30.945 210.547 29.4039 209.062 29.4039 207.231C29.4039 203.887 32.2173 201.177 35.6879 201.177H242.75C247.238 201.177 250.877 196.533 250.877 190.807Z" fill="url(#paint25_linear)"/>
<path d="M244.916 169.181H43.4007C42.8818 169.181 42.4609 168.76 42.4609 168.242C42.4609 167.724 42.8818 167.303 43.4007 167.303H244.916C245.435 167.303 245.855 167.724 245.855 168.242C245.855 168.76 245.435 169.181 244.916 169.181Z" fill="url(#paint26_linear)"/>
<path d="M244.916 175.332H43.4007C42.8818 175.332 42.4609 174.911 42.4609 174.393C42.4609 173.871 42.8818 173.45 43.4007 173.45H244.916C245.435 173.45 245.855 173.871 245.855 174.393C245.855 174.911 245.435 175.332 244.916 175.332Z" fill="url(#paint27_linear)"/>
<path d="M244.916 181.483H43.4007C42.8818 181.483 42.4609 181.062 42.4609 180.544C42.4609 180.022 42.8818 179.601 43.4007 179.601H244.916C245.435 179.601 245.855 180.022 245.855 180.544C245.855 181.062 245.435 181.483 244.916 181.483Z" fill="url(#paint28_linear)"/>
<path d="M244.916 187.635H43.4007C42.8818 187.635 42.4609 187.214 42.4609 186.696C42.4609 186.173 42.8818 185.752 43.4007 185.752H244.916C245.435 185.752 245.855 186.173 245.855 186.696C245.855 187.214 245.435 187.635 244.916 187.635Z" fill="url(#paint29_linear)"/>
<path d="M244.916 193.781H43.4007C42.8818 193.781 42.4609 193.365 42.4609 192.842C42.4609 192.324 42.8818 191.903 43.4007 191.903H244.916C245.435 191.903 245.855 192.324 245.855 192.842C245.855 193.365 245.435 193.781 244.916 193.781Z" fill="url(#paint30_linear)"/>
<path d="M274.398 279.339H13.919C6.64066 279.339 0.74054 273.442 0.74054 266.162V223.284C0.74054 216.004 6.64066 210.103 13.919 210.103H274.398C281.676 210.103 287.576 216.004 287.576 223.284V266.162C287.576 273.442 281.676 279.339 274.398 279.339Z" fill="url(#paint31_linear)"/>
<path d="M62.3924 271.384H37.6186C35.1544 271.384 33.1573 269.386 33.1573 266.921V222.521C33.1573 220.06 35.1544 218.062 37.6186 218.062H62.3924C64.8566 218.062 66.8536 220.06 66.8536 222.521V266.921C66.8536 269.386 64.8566 271.384 62.3924 271.384Z" fill="url(#paint32_linear)"/>
<path d="M80.8247 271.384H75.4384C73.4344 271.384 71.8101 269.761 71.8101 267.753V221.688C71.8101 219.686 73.4348 218.062 75.4389 218.062H80.8247C82.8287 218.062 84.4534 219.686 84.4534 221.688V267.753C84.4534 269.761 82.8287 271.384 80.8247 271.384Z" fill="url(#paint33_linear)"/>
<defs>
<linearGradient id="paint0_linear" x1="86.009" y1="64.3359" x2="122.156" y2="151.651" gradientUnits="userSpaceOnUse">
<stop stop-color="#F9B776"/>
<stop offset="1" stop-color="#F47960"/>
</linearGradient>
<linearGradient id="paint1_linear" x1="97.2301" y1="-22.4575" x2="196.612" y2="217.607" gradientUnits="userSpaceOnUse">
<stop stop-color="#F9B776"/>
<stop offset="1" stop-color="#F47960"/>
</linearGradient>
<linearGradient id="paint2_linear" x1="194.477" y1="68.506" x2="141.574" y2="196.298" gradientUnits="userSpaceOnUse">
<stop stop-color="#F9B776"/>
<stop offset="1" stop-color="#F47960"/>
</linearGradient>
<linearGradient id="paint3_linear" x1="131.199" y1="33.1092" x2="131.873" y2="16.7487" gradientUnits="userSpaceOnUse">
<stop stop-color="#F9B776"/>
<stop offset="1" stop-color="#F47960"/>
</linearGradient>
<linearGradient id="paint4_linear" x1="159.786" y1="33.1092" x2="159.112" y2="16.7487" gradientUnits="userSpaceOnUse">
<stop stop-color="#F9B776"/>
<stop offset="1" stop-color="#F47960"/>
</linearGradient>
<linearGradient id="paint5_linear" x1="144.855" y1="43.8485" x2="147.393" y2="-17.8407" gradientUnits="userSpaceOnUse">
<stop stop-color="#F9B776"/>
<stop offset="1" stop-color="#F47960"/>
</linearGradient>
<linearGradient id="paint6_linear" x1="148.42" y1="119.346" x2="168.045" y2="46.0763" gradientUnits="userSpaceOnUse">
<stop stop-color="#E92556"/>
<stop offset="1" stop-color="#F9C342"/>
</linearGradient>
<linearGradient id="paint7_linear" x1="139.152" y1="175.069" x2="169.105" y2="46.0326" gradientUnits="userSpaceOnUse">
<stop stop-color="#E92556"/>
<stop offset="1" stop-color="#F9C342"/>
</linearGradient>
<linearGradient id="paint8_linear" x1="150.584" y1="143.757" x2="135.803" y2="106.066" gradientUnits="userSpaceOnUse">
<stop stop-color="#E92556"/>
<stop offset="1" stop-color="#F9C342"/>
</linearGradient>
<linearGradient id="paint9_linear" x1="139.152" y1="175.068" x2="169.105" y2="46.0324" gradientUnits="userSpaceOnUse">
<stop stop-color="#F25488"/>
<stop offset="1" stop-color="#FBD975"/>
</linearGradient>
<linearGradient id="paint10_linear" x1="139.152" y1="175.068" x2="169.104" y2="46.0323" gradientUnits="userSpaceOnUse">
<stop stop-color="#F25488"/>
<stop offset="1" stop-color="#FBD975"/>
</linearGradient>
<linearGradient id="paint11_linear" x1="139.152" y1="175.068" x2="169.105" y2="46.0323" gradientUnits="userSpaceOnUse">
<stop stop-color="#F25488"/>
<stop offset="1" stop-color="#FBD975"/>
</linearGradient>
<linearGradient id="paint12_linear" x1="139.152" y1="175.068" x2="169.105" y2="46.0324" gradientUnits="userSpaceOnUse">
<stop stop-color="#F25488"/>
<stop offset="1" stop-color="#FBD975"/>
</linearGradient>
<linearGradient id="paint13_linear" x1="145.845" y1="105.277" x2="160.286" y2="140.159" gradientUnits="userSpaceOnUse">
<stop stop-color="#E92556"/>
<stop offset="1" stop-color="#F9C342"/>
</linearGradient>
<linearGradient id="paint14_linear" x1="133.367" y1="138.494" x2="135.998" y2="131.785" gradientUnits="userSpaceOnUse">
<stop stop-color="#F9B776"/>
<stop offset="1" stop-color="#F47960"/>
</linearGradient>
<linearGradient id="paint15_linear" x1="177.132" y1="150.389" x2="189.054" y2="119.99" gradientUnits="userSpaceOnUse">
<stop stop-color="#E92556"/>
<stop offset="1" stop-color="#F9C342"/>
</linearGradient>
<linearGradient id="paint16_linear" x1="151.156" y1="138.706" x2="148.525" y2="131.998" gradientUnits="userSpaceOnUse">
<stop stop-color="#F9B776"/>
<stop offset="1" stop-color="#F47960"/>
</linearGradient>
<linearGradient id="paint17_linear" x1="112.072" y1="150.163" x2="100.676" y2="121.105" gradientUnits="userSpaceOnUse">
<stop stop-color="#E92556"/>
<stop offset="1" stop-color="#F9C342"/>
</linearGradient>
<linearGradient id="paint18_linear" x1="187.719" y1="116.299" x2="180.312" y2="97.4101" gradientUnits="userSpaceOnUse">
<stop stop-color="#F9B776"/>
<stop offset="1" stop-color="#F47960"/>
</linearGradient>
<linearGradient id="paint19_linear" x1="126.182" y1="69.5219" x2="122.913" y2="201.945" gradientUnits="userSpaceOnUse">
<stop stop-color="#2B3582"/>
<stop offset="1" stop-color="#150E42"/>
</linearGradient>
<linearGradient id="paint20_linear" x1="164.928" y1="69.5219" x2="168.197" y2="201.945" gradientUnits="userSpaceOnUse">
<stop stop-color="#2B3582"/>
<stop offset="1" stop-color="#150E42"/>
</linearGradient>
<linearGradient id="paint21_linear" x1="123.029" y1="172.834" x2="145.681" y2="102.132" gradientUnits="userSpaceOnUse">
<stop stop-color="#285E61"/>
<stop offset="1" stop-color="#150E42"/>
</linearGradient>
<linearGradient id="paint22_linear" x1="111.534" y1="106.322" x2="106.705" y2="94.0083" gradientUnits="userSpaceOnUse">
<stop stop-color="#F9B776"/>
<stop offset="1" stop-color="#F47960"/>
</linearGradient>
<linearGradient id="paint23_linear" x1="181.094" y1="102.451" x2="185.923" y2="90.1372" gradientUnits="userSpaceOnUse">
<stop stop-color="#F9B776"/>
<stop offset="1" stop-color="#F47960"/>
</linearGradient>
<linearGradient id="paint24_linear" x1="113.456" y1="161.036" x2="311.359" y2="289.327" gradientUnits="userSpaceOnUse">
<stop stop-color="#81E6D9"/>
<stop offset="1" stop-color="#38B2AC"/>
</linearGradient>
<linearGradient id="paint25_linear" x1="171.505" y1="73.1566" x2="144.05" y2="195.979" gradientUnits="userSpaceOnUse">
<stop stop-color="#53D8FF"/>
<stop offset="1" stop-color="#319795"/>
</linearGradient>
<linearGradient id="paint26_linear" x1="113.456" y1="161.037" x2="311.359" y2="289.327" gradientUnits="userSpaceOnUse">
<stop stop-color="#91EBFF"/>
<stop offset="1" stop-color="#4FD1C5"/>
</linearGradient>
<linearGradient id="paint27_linear" x1="113.456" y1="161.036" x2="311.358" y2="289.327" gradientUnits="userSpaceOnUse">
<stop stop-color="#91EBFF"/>
<stop offset="1" stop-color="#4FD1C5"/>
</linearGradient>
<linearGradient id="paint28_linear" x1="113.456" y1="161.036" x2="311.358" y2="289.327" gradientUnits="userSpaceOnUse">
<stop stop-color="#91EBFF"/>
<stop offset="1" stop-color="#4FD1C5"/>
</linearGradient>
<linearGradient id="paint29_linear" x1="113.456" y1="161.036" x2="311.359" y2="289.327" gradientUnits="userSpaceOnUse">
<stop stop-color="#91EBFF"/>
<stop offset="1" stop-color="#4FD1C5"/>
</linearGradient>
<linearGradient id="paint30_linear" x1="113.456" y1="161.036" x2="311.359" y2="289.327" gradientUnits="userSpaceOnUse">
<stop stop-color="#91EBFF"/>
<stop offset="1" stop-color="#4FD1C5"/>
</linearGradient>
<linearGradient id="paint31_linear" x1="246.969" y1="276.57" x2="241.567" y2="191.016" gradientUnits="userSpaceOnUse">
<stop stop-color="#234E52"/>
<stop offset="1" stop-color="#319795"/>
</linearGradient>
<linearGradient id="paint32_linear" x1="62.0834" y1="269.251" x2="38.7049" y2="212.779" gradientUnits="userSpaceOnUse">
<stop stop-color="#319795"/>
<stop offset="1" stop-color="#4FD1C5"/>
</linearGradient>
<linearGradient id="paint33_linear" x1="82.6636" y1="269.251" x2="49.7474" y2="239.417" gradientUnits="userSpaceOnUse">
<stop stop-color="#319795"/>
<stop offset="1" stop-color="#4FD1C5"/>
</linearGradient>
</defs>
</svg>
