<svg width="110" height="200" viewBox="0 0 110 200" fill="none" xmlns="http://www.w3.org/2000/svg">
<g filter="url(#filter0_d)">
<rect x="17.7668" y="13.9327" width="74.9689" height="168.199" fill="url(#paint0_linear)"/>
<rect x="12" y="10.088" width="85.5414" height="3.84456" fill="url(#paint1_linear)"/>
<rect x="12" y="182.132" width="85.5414" height="3.84456" fill="url(#paint2_linear)"/>
<rect x="17.7668" y="13.9327" width="3.84456" height="168.199" fill="url(#paint3_linear)"/>
<rect x="88.8912" y="13.9327" width="3.84456" height="168.199" fill="url(#paint4_linear)"/>
<path d="M21.6115 13.9327H88.8913V56.5737L55.2514 76.4068L21.6115 56.5737V13.9327Z" fill="url(#paint5_linear)"/>
<path d="M45.1381 94.0421H48.31V102.901H49.8412V94.0421H53.0181V92.7197H45.1381V94.0421ZM55.8233 103.071C57.0861 103.071 57.797 102.429 58.0804 101.857H58.1401V102.901H59.5918V97.8305C59.5918 95.6082 57.8418 95.1657 56.6287 95.1657C55.2466 95.1657 53.9739 95.7225 53.4767 97.1146L54.8737 97.4327C55.0925 96.8908 55.6493 96.3688 56.6486 96.3688C57.6081 96.3688 58.1003 96.8709 58.1003 97.736V97.7708C58.1003 98.3127 57.5435 98.3028 56.1713 98.4619C54.7246 98.6309 53.2431 99.0087 53.2431 100.744C53.2431 102.245 54.3716 103.071 55.8233 103.071ZM56.1465 101.877C55.3063 101.877 54.6997 101.5 54.6997 100.764C54.6997 99.9683 55.4057 99.6849 56.2658 99.5705C56.748 99.5059 57.8915 99.3766 58.1053 99.1629V100.147C58.1053 101.052 57.3844 101.877 56.1465 101.877ZM56.1266 94.2459H57.3148L56.1564 91.954H54.5904L56.1266 94.2459ZM61.5717 102.901H63.0582V95.2651H61.5717V102.901ZM62.3224 94.0869C62.8345 94.0869 63.2621 93.6891 63.2621 93.2019C63.2621 92.7147 62.8345 92.312 62.3224 92.312C61.8054 92.312 61.3828 92.7147 61.3828 93.2019C61.3828 93.6891 61.8054 94.0869 62.3224 94.0869ZM45.0182 112.72H43.5317V122.901H45.0182V112.72ZM47.018 122.901H48.5045V115.265H47.018V122.901ZM47.7687 114.087C48.2808 114.087 48.7083 113.689 48.7083 113.202C48.7083 112.715 48.2808 112.312 47.7687 112.312C47.2517 112.312 46.8291 112.715 46.8291 113.202C46.8291 113.689 47.2517 114.087 47.7687 114.087ZM53.7955 123.056C55.461 123.056 56.6393 122.235 56.9773 120.992L55.5704 120.739C55.3019 121.46 54.6556 121.828 53.8104 121.828C52.5377 121.828 51.6826 121.002 51.6428 119.531H57.0718V119.004C57.0718 116.245 55.4212 115.166 53.6911 115.166C51.5633 115.166 50.1613 116.786 50.1613 119.133C50.1613 121.504 51.5434 123.056 53.7955 123.056ZM51.6478 118.417C51.7075 117.333 52.493 116.394 53.7011 116.394C54.8545 116.394 55.6102 117.249 55.6151 118.417H51.6478ZM52.6123 114.35L53.6364 113.018L54.6556 114.35H56.0029V114.276L54.2529 112.168H53.015L51.27 114.276V114.35H52.6123ZM53.6315 125.536C54.1435 125.536 54.5711 125.139 54.5711 124.651C54.5711 124.164 54.1435 123.762 53.6315 123.762C53.1144 123.762 52.6918 124.164 52.6918 124.651C52.6918 125.139 53.1144 125.536 53.6315 125.536ZM63.5585 119.735C63.5635 121.032 62.599 121.649 61.7637 121.649C60.844 121.649 60.2076 120.982 60.2076 119.943V115.265H58.7211V120.122C58.7211 122.017 59.7602 123.001 61.2268 123.001C62.3752 123.001 63.1558 122.394 63.5088 121.579H63.5883V122.901H65.05V115.265H63.5585V119.735ZM46.7272 132.72H45.2407V142.901H46.7272V132.72ZM50.9493 143.071C52.2121 143.071 52.923 142.429 53.2064 141.857H53.266V142.901H54.7178V137.83C54.7178 135.608 52.9678 135.166 51.7547 135.166C50.3726 135.166 49.0999 135.723 48.6027 137.115L49.9997 137.433C50.2185 136.891 50.7753 136.369 51.7746 136.369C52.7341 136.369 53.2263 136.871 53.2263 137.736V137.771C53.2263 138.313 52.6695 138.303 51.2973 138.462C49.8506 138.631 48.369 139.009 48.369 140.744C48.369 142.245 49.4976 143.071 50.9493 143.071ZM51.2724 141.877C50.4322 141.877 49.8257 141.5 49.8257 140.764C49.8257 139.968 50.5317 139.685 51.3918 139.571C51.874 139.506 53.0175 139.377 53.2312 139.163V140.147C53.2312 141.052 52.5104 141.877 51.2724 141.877ZM50.8101 134.35L51.8342 133.018L52.8534 134.35H54.2007V134.276L52.4507 132.168H51.2128L49.4678 134.276V134.35H50.8101ZM51.7646 145.536C52.2767 145.536 52.7043 145.139 52.7043 144.651C52.7043 144.164 52.2767 143.762 51.7646 143.762C51.2476 143.762 50.825 144.164 50.825 144.651C50.825 145.139 51.2476 145.536 51.7646 145.536ZM56.6977 145.765H58.1842V141.713H58.2737C58.5422 142.2 59.089 143.051 60.4811 143.051C62.3305 143.051 63.6728 141.569 63.6728 139.098C63.6728 136.622 62.3106 135.166 60.4662 135.166C59.0493 135.166 58.5372 136.031 58.2737 136.503H58.1494V135.265H56.6977V145.765ZM58.1544 139.083C58.1544 137.487 58.8504 136.428 60.148 136.428C61.4953 136.428 62.1714 137.567 62.1714 139.083C62.1714 140.615 61.4754 141.783 60.148 141.783C58.8703 141.783 58.1544 140.689 58.1544 139.083ZM43.4254 155.265H41.8594V153.436H40.3729V155.265H39.2542V156.458H40.3729V160.968C40.3679 162.355 41.4268 163.026 42.6001 163.001C43.0724 162.996 43.3906 162.906 43.5646 162.842L43.2961 161.614C43.1967 161.634 43.0128 161.678 42.7741 161.678C42.2919 161.678 41.8594 161.519 41.8594 160.659V156.458H43.4254V155.265ZM45.0698 162.901H46.5563V158.238C46.5563 157.239 47.3269 156.518 48.3808 156.518C48.6891 156.518 49.0371 156.573 49.1564 156.607V155.186C49.0073 155.166 48.7139 155.151 48.525 155.151C47.6301 155.151 46.8645 155.658 46.5861 156.478H46.5066V155.265H45.0698V162.901ZM50.4428 162.901H51.9293V155.265H50.4428V162.901ZM50.6168 154.246H51.805L50.6466 151.954H49.0806L50.6168 154.246ZM55.4156 158.367C55.4156 157.149 56.1614 156.453 57.1955 156.453C58.2047 156.453 58.8162 157.115 58.8162 158.223V162.901H60.3027V158.044C60.3027 156.155 59.2637 155.166 57.7026 155.166C56.5541 155.166 55.8034 155.698 55.4504 156.508H55.356V155.265H53.9291V162.901H55.4156V158.367ZM63.7828 158.367C63.7828 157.149 64.5534 156.453 65.6124 156.453C66.6365 156.453 67.248 157.105 67.248 158.223V162.901H68.7345V158.044C68.7345 156.14 67.6905 155.166 66.1195 155.166C64.9313 155.166 64.2154 155.683 63.8574 156.508H63.7629V152.72H62.2963V162.901H63.7828V158.367Z" fill="white"/>
</g>
<g clip-path="url(#clip0)">
<path d="M64.7825 43.4876V28.4698H44.7588V43.4876H42.7564V45.49H66.7849V43.4876H64.7825ZM56.773 43.4876H52.7683V42.4864H56.773V43.4876ZM62.7802 40.484H46.7612V30.4722H62.7802V40.484Z" fill="#E6FFFA"/>
</g>
<defs>
<filter id="filter0_d" x="0" y="0.0880127" width="109.541" height="199.889" filterUnits="userSpaceOnUse" color-interpolation-filters="sRGB">
<feFlood flood-opacity="0" result="BackgroundImageFix"/>
<feColorMatrix in="SourceAlpha" type="matrix" values="0 0 0 0 0 0 0 0 0 0 0 0 0 0 0 0 0 0 127 0" result="hardAlpha"/>
<feOffset dy="2"/>
<feGaussianBlur stdDeviation="6"/>
<feColorMatrix type="matrix" values="0 0 0 0 0.729412 0 0 0 0 0.729412 0 0 0 0 0.729412 0 0 0 1 0"/>
<feBlend mode="normal" in2="BackgroundImageFix" result="effect1_dropShadow"/>
<feBlend mode="normal" in="SourceGraphic" in2="effect1_dropShadow" result="shape"/>
</filter>
<linearGradient id="paint0_linear" x1="55.2512" y1="13.9327" x2="55.2512" y2="182.132" gradientUnits="userSpaceOnUse">
<stop stop-color="#38B2AC"/>
<stop offset="1" stop-color="#319795"/>
</linearGradient>
<linearGradient id="paint1_linear" x1="12" y1="12.0103" x2="97.5414" y2="12.0103" gradientUnits="userSpaceOnUse">
<stop stop-color="#285E61"/>
<stop offset="0.53125" stop-color="#2C7A7B"/>
<stop offset="1" stop-color="#285E61"/>
</linearGradient>
<linearGradient id="paint2_linear" x1="12" y1="184.054" x2="97.5414" y2="184.054" gradientUnits="userSpaceOnUse">
<stop stop-color="#285E61"/>
<stop offset="0.53125" stop-color="#2C7A7B"/>
<stop offset="1" stop-color="#285E61"/>
</linearGradient>
<linearGradient id="paint3_linear" x1="19.6891" y1="13.9327" x2="19.6891" y2="182.132" gradientUnits="userSpaceOnUse">
<stop stop-color="#2C7A7B"/>
<stop offset="0.505208" stop-color="#319795"/>
<stop offset="1" stop-color="#2C7A7B"/>
</linearGradient>
<linearGradient id="paint4_linear" x1="90.8135" y1="13.9327" x2="90.8135" y2="182.132" gradientUnits="userSpaceOnUse">
<stop stop-color="#2C7A7B"/>
<stop offset="0.505208" stop-color="#319795"/>
<stop offset="1" stop-color="#2C7A7B"/>
</linearGradient>
<linearGradient id="paint5_linear" x1="55.2514" y1="13.9327" x2="55.2514" y2="76.4068" gradientUnits="userSpaceOnUse">
<stop stop-color="#234E52"/>
<stop offset="0.0001" stop-color="#285E61"/>
<stop offset="1" stop-color="#319795"/>
</linearGradient>
<clipPath id="clip0">
<rect width="24.0285" height="24.0285" fill="white" transform="translate(42.7564 25.4662)"/>
</clipPath>
</defs>
</svg>
