<svg width="111" height="200" viewBox="0 0 111 200" fill="none" xmlns="http://www.w3.org/2000/svg">
<g filter="url(#filter0_d)">
<rect x="18.4948" y="13.9327" width="74.9689" height="168.199" fill="url(#paint0_linear)"/>
<rect x="12.728" y="10.088" width="85.5414" height="3.84456" fill="url(#paint1_linear)"/>
<rect x="12.728" y="182.132" width="85.5414" height="3.84456" fill="url(#paint2_linear)"/>
<rect x="18.4948" y="13.9327" width="3.84456" height="168.199" fill="url(#paint3_linear)"/>
<rect x="89.6192" y="13.9327" width="3.84456" height="168.199" fill="url(#paint4_linear)"/>
<path d="M22.3394 13.9327H89.6192V56.5737L55.9793 76.4068L22.3394 56.5737V13.9327Z" fill="url(#paint5_linear)"/>
<path d="M37.6741 102.331H36.0136L39.6777 112.513H41.4525L45.1166 102.331H43.4561L40.6223 110.624H40.5079L37.6741 102.331ZM46.4676 112.513H47.9541V104.877H46.4676V112.513ZM47.2183 103.698C47.7304 103.698 48.158 103.301 48.158 102.813C48.158 102.326 47.7304 101.923 47.2183 101.923C46.7013 101.923 46.2787 102.326 46.2787 102.813C46.2787 103.301 46.7013 103.698 47.2183 103.698ZM52.8126 112.662C54.2047 112.662 54.7515 111.812 55.02 111.325H55.1443V112.513H56.596V102.331H55.1095V106.114H55.02C54.7515 105.642 54.2444 104.777 52.8226 104.777C50.9781 104.777 49.6208 106.234 49.6208 108.71C49.6208 111.18 50.9582 112.662 52.8126 112.662ZM53.1407 111.394C51.8133 111.394 51.1223 110.226 51.1223 108.695C51.1223 107.178 51.7984 106.04 53.1407 106.04C54.4383 106.04 55.1343 107.099 55.1343 108.695C55.1343 110.301 54.4234 111.394 53.1407 111.394ZM62.0088 112.667C63.6743 112.667 64.8526 111.847 65.1906 110.604L63.7837 110.35C63.5152 111.071 62.8689 111.439 62.0237 111.439C60.751 111.439 59.8959 110.614 59.8561 109.142H65.2851V108.615C65.2851 105.856 63.6345 104.777 61.9044 104.777C59.7766 104.777 58.3746 106.398 58.3746 108.744C58.3746 111.116 59.7567 112.667 62.0088 112.667ZM59.8611 108.029C59.9207 106.945 60.7063 106.005 61.9144 106.005C63.0678 106.005 63.8234 106.86 63.8284 108.029H59.8611ZM70.151 112.667C72.3037 112.667 73.7107 111.091 73.7107 108.729C73.7107 106.353 72.3037 104.777 70.151 104.777C67.9983 104.777 66.5914 106.353 66.5914 108.729C66.5914 111.091 67.9983 112.667 70.151 112.667ZM70.156 111.419C68.749 111.419 68.0928 110.191 68.0928 108.725C68.0928 107.263 68.749 106.02 70.156 106.02C71.553 106.02 72.2093 107.263 72.2093 108.725C72.2093 110.191 71.553 111.419 70.156 111.419ZM47.4551 122.331H45.9686V132.513H47.4551V122.331ZM51.6772 132.682C52.94 132.682 53.6509 132.041 53.9343 131.469H53.994V132.513H55.4457V127.442C55.4457 125.22 53.6957 124.777 52.4826 124.777C51.1005 124.777 49.8278 125.334 49.3306 126.726L50.7277 127.044C50.9464 126.502 51.5032 125.98 52.5025 125.98C53.462 125.98 53.9542 126.482 53.9542 127.347V127.382C53.9542 127.924 53.3974 127.914 52.0252 128.073C50.5785 128.242 49.097 128.62 49.097 130.355C49.097 131.857 50.2255 132.682 51.6772 132.682ZM52.0004 131.489C51.1602 131.489 50.5536 131.111 50.5536 130.375C50.5536 129.58 51.2596 129.296 52.1197 129.182C52.6019 129.117 53.7454 128.988 53.9592 128.774V129.759C53.9592 130.663 53.2383 131.489 52.0004 131.489ZM51.538 123.962L52.5622 122.629L53.5813 123.962H54.9286V123.887L53.1786 121.779H51.9407L50.1957 123.887V123.962H51.538ZM52.4926 135.148C53.0046 135.148 53.4322 134.75 53.4322 134.263C53.4322 133.776 53.0046 133.373 52.4926 133.373C51.9755 133.373 51.5529 133.776 51.5529 134.263C51.5529 134.75 51.9755 135.148 52.4926 135.148ZM57.4256 135.377H58.9121V131.325H59.0016C59.2701 131.812 59.817 132.662 61.209 132.662C63.0584 132.662 64.4008 131.18 64.4008 128.71C64.4008 126.234 63.0386 124.777 61.1941 124.777C59.7772 124.777 59.2651 125.642 59.0016 126.114H58.8773V124.877H57.4256V135.377ZM58.8823 128.695C58.8823 127.099 59.5783 126.04 60.8759 126.04C62.2232 126.04 62.8993 127.178 62.8993 128.695C62.8993 130.226 62.2033 131.394 60.8759 131.394C59.5982 131.394 58.8823 130.301 58.8823 128.695ZM44.1533 144.877H42.5873V143.047H41.1008V144.877H39.9822V146.07H41.1008V150.579C41.0958 151.966 42.1548 152.637 43.3281 152.612C43.8004 152.607 44.1185 152.518 44.2925 152.453L44.0241 151.225C43.9246 151.245 43.7407 151.29 43.5021 151.29C43.0198 151.29 42.5873 151.131 42.5873 150.271V146.07H44.1533V144.877ZM45.7977 152.513H47.2842V147.85C47.2842 146.85 48.0548 146.129 49.1088 146.129C49.417 146.129 49.765 146.184 49.8843 146.219V144.797C49.7352 144.777 49.4419 144.762 49.253 144.762C48.3581 144.762 47.5924 145.269 47.314 146.09H47.2345V144.877H45.7977V152.513ZM51.1707 152.513H52.6572V144.877H51.1707V152.513ZM51.3447 143.857H52.533L51.3746 141.565H49.8085L51.3447 143.857ZM56.1436 147.979C56.1436 146.761 56.8893 146.065 57.9234 146.065C58.9326 146.065 59.5441 146.726 59.5441 147.835V152.513H61.0307V147.656C61.0307 145.766 59.9916 144.777 58.4305 144.777C57.2821 144.777 56.5314 145.309 56.1784 146.119H56.0839V144.877H54.6571V152.513H56.1436V147.979ZM64.5108 147.979C64.5108 146.761 65.2814 146.065 66.3403 146.065C67.3645 146.065 67.976 146.716 67.976 147.835V152.513H69.4625V147.656C69.4625 145.752 68.4184 144.777 66.8474 144.777C65.6592 144.777 64.9433 145.294 64.5853 146.119H64.4909V142.331H63.0243V152.513H64.5108V147.979Z" fill="white"/>
</g>
<path d="M45.8873 33.1554H43.4845V49.9753C43.4845 51.2969 44.5657 52.3782 45.8873 52.3782H62.7073V49.9753H45.8873V33.1554ZM65.1101 28.3497H50.693C49.3714 28.3497 48.2902 29.431 48.2902 30.7525V45.1696C48.2902 46.4912 49.3714 47.5725 50.693 47.5725H65.1101C66.4317 47.5725 67.513 46.4912 67.513 45.1696V30.7525C67.513 29.431 66.4317 28.3497 65.1101 28.3497ZM55.4987 43.3675V32.5547L62.7073 37.9611L55.4987 43.3675Z" fill="white" fill-opacity="0.87"/>
<defs>
<filter id="filter0_d" x="0.727982" y="0.0880127" width="109.541" height="199.889" filterUnits="userSpaceOnUse" color-interpolation-filters="sRGB">
<feFlood flood-opacity="0" result="BackgroundImageFix"/>
<feColorMatrix in="SourceAlpha" type="matrix" values="0 0 0 0 0 0 0 0 0 0 0 0 0 0 0 0 0 0 127 0" result="hardAlpha"/>
<feOffset dy="2"/>
<feGaussianBlur stdDeviation="6"/>
<feColorMatrix type="matrix" values="0 0 0 0 0.729412 0 0 0 0 0.729412 0 0 0 0 0.729412 0 0 0 1 0"/>
<feBlend mode="normal" in2="BackgroundImageFix" result="effect1_dropShadow"/>
<feBlend mode="normal" in="SourceGraphic" in2="effect1_dropShadow" result="shape"/>
</filter>
<linearGradient id="paint0_linear" x1="55.9793" y1="13.9327" x2="55.9793" y2="182.132" gradientUnits="userSpaceOnUse">
<stop stop-color="#FCD34D"/>
<stop offset="1" stop-color="#F59E0B"/>
</linearGradient>
<linearGradient id="paint1_linear" x1="12.728" y1="12.0103" x2="98.2694" y2="12.0103" gradientUnits="userSpaceOnUse">
<stop stop-color="#B45309"/>
<stop offset="0.53125" stop-color="#D97706"/>
<stop offset="1" stop-color="#B45309"/>
</linearGradient>
<linearGradient id="paint2_linear" x1="12.728" y1="184.054" x2="98.2694" y2="184.054" gradientUnits="userSpaceOnUse">
<stop stop-color="#B45309"/>
<stop offset="0.53125" stop-color="#D97706"/>
<stop offset="1" stop-color="#B45309"/>
</linearGradient>
<linearGradient id="paint3_linear" x1="20.4171" y1="13.9327" x2="20.4171" y2="182.132" gradientUnits="userSpaceOnUse">
<stop stop-color="#D97706"/>
<stop offset="0.505208" stop-color="#F59E0B"/>
<stop offset="1" stop-color="#D97706"/>
</linearGradient>
<linearGradient id="paint4_linear" x1="91.5414" y1="13.9327" x2="91.5414" y2="182.132" gradientUnits="userSpaceOnUse">
<stop stop-color="#D97706"/>
<stop offset="0.505208" stop-color="#F59E0B"/>
<stop offset="1" stop-color="#D97706"/>
</linearGradient>
<linearGradient id="paint5_linear" x1="55.9793" y1="13.9327" x2="55.9793" y2="76.4068" gradientUnits="userSpaceOnUse">
<stop stop-color="#F59E0B"/>
<stop offset="0.0001" stop-color="#D97706"/>
<stop offset="1" stop-color="#F59E0B"/>
</linearGradient>
</defs>
</svg>
